<svg xmlns="http://www.w3.org/2000/svg" viewBox="0 0 520 430" role="img" aria-label="Chargeurs">
  <defs>
    <linearGradient id="g" x1="0" y1="0" x2="1" y2="1">
      <stop offset="0" stop-color="#e9efe8"/>
      <stop offset="1" stop-color="#ffffff"/>
    </linearGradient>
    <filter id="shadow" x="-20%" y="-20%" width="140%" height="140%">
      <feDropShadow dx="0" dy="22" stdDeviation="24" flood-color="#1f2a24" flood-opacity="0.15"/>
    </filter>
  </defs>
  <rect width="520" height="430" rx="0" fill="url(#g)"/>
  <circle cx="-20" cy="60" r="120" fill="#2f5646" opacity=".16"/>
  <circle cx="522" cy="402" r="180" fill="#d6a23a" opacity=".08"/>
  <g filter="url(#shadow)"><rect x="90" y="110" width="125" height="210" rx="28" fill="#d6a23a" opacity=".95"/><rect x="108" y="140" width="89" height="140" rx="16" fill="#ffffff" opacity=".18"/><circle cx="153" cy="296" r="9" fill="#fffaf0" opacity=".55"/><path d="M255 126 C360 112 438 166 424 264 C412 350 310 360 274 296" fill="none" stroke="#2f5646" stroke-width="24" stroke-linecap="round"/><rect x="300" y="220" width="105" height="132" rx="22" fill="#2f5646" opacity=".9"/><rect x="322" y="196" width="18" height="44" rx="7" fill="#1f2a24" opacity=".65"/><rect x="365" y="196" width="18" height="44" rx="7" fill="#1f2a24" opacity=".65"/></g>
  <rect x="28" y="28" width="464" height="374" rx="34" fill="none" stroke="#d6a23a" stroke-opacity=".10"/>
  <text x="42" y="58" font-family="Inter, Arial, sans-serif" font-size="20" font-weight="900" fill="#d6a23a">Chargeurs</text>
  <text x="42" y="84" font-family="Cairo, Arial, sans-serif" font-size="15" font-weight="700" fill="#d6a23a" opacity=".62">USB • Type-C</text>
</svg>