<svg xmlns="http://www.w3.org/2000/svg" viewBox="0 0 520 430" role="img" aria-label="Impression">
  <defs>
    <linearGradient id="g" x1="0" y1="0" x2="1" y2="1">
      <stop offset="0" stop-color="#e9efe8"/>
      <stop offset="1" stop-color="#ffffff"/>
    </linearGradient>
    <filter id="shadow" x="-20%" y="-20%" width="140%" height="140%">
      <feDropShadow dx="0" dy="22" stdDeviation="24" flood-color="#1f2a24" flood-opacity="0.15"/>
    </filter>
  </defs>
  <rect width="520" height="430" rx="0" fill="url(#g)"/>
  <circle cx="-20" cy="60" r="120" fill="#2f5646" opacity=".16"/>
  <circle cx="522" cy="402" r="180" fill="#d6a23a" opacity=".08"/>
  <g filter="url(#shadow)"><rect x="86" y="152" width="348" height="188" rx="26" fill="#d6a23a" opacity=".92"/><rect x="122" y="92" width="274" height="96" rx="16" fill="#ffffff" opacity=".88"/><rect x="132" y="112" width="210" height="12" rx="6" fill="#d6a23a" opacity=".8"/><rect x="132" y="140" width="245" height="10" rx="5" fill="#31463a" opacity=".35"/><rect x="126" y="260" width="270" height="118" rx="16" fill="#ffffff" opacity=".95"/><circle cx="394" cy="220" r="14" fill="#25d366"/><rect x="150" y="292" width="190" height="10" rx="5" fill="#31463a" opacity=".28"/><rect x="150" y="320" width="140" height="10" rx="5" fill="#31463a" opacity=".2"/></g>
  <rect x="28" y="28" width="464" height="374" rx="34" fill="none" stroke="#d6a23a" stroke-opacity=".10"/>
  <text x="42" y="58" font-family="Inter, Arial, sans-serif" font-size="20" font-weight="900" fill="#d6a23a">Impression</text>
  <text x="42" y="84" font-family="Cairo, Arial, sans-serif" font-size="15" font-weight="700" fill="#d6a23a" opacity=".62">Maktabet Naje7</text>
</svg>