<svg xmlns="http://www.w3.org/2000/svg" viewBox="0 0 520 430" role="img" aria-label="Fournitures">
  <defs>
    <linearGradient id="g" x1="0" y1="0" x2="1" y2="1">
      <stop offset="0" stop-color="#fffaf0"/>
      <stop offset="1" stop-color="#ffffff"/>
    </linearGradient>
    <filter id="shadow" x="-20%" y="-20%" width="140%" height="140%">
      <feDropShadow dx="0" dy="22" stdDeviation="24" flood-color="#1f2a24" flood-opacity="0.15"/>
    </filter>
  </defs>
  <rect width="520" height="430" rx="0" fill="url(#g)"/>
  <circle cx="-20" cy="60" r="120" fill="#7a4e2d" opacity=".16"/>
  <circle cx="522" cy="402" r="180" fill="#1f2a24" opacity=".08"/>
  <g filter="url(#shadow)"><rect x="90" y="120" width="150" height="250" rx="22" fill="#7a4e2d" opacity=".9"/><rect x="118" y="148" width="96" height="10" rx="5" fill="#ffffff" opacity=".7"/><rect x="118" y="180" width="80" height="10" rx="5" fill="#ffffff" opacity=".35"/><rect x="276" y="92" width="34" height="292" rx="17" fill="#1f2a24" opacity=".88" transform="rotate(14 293 238)"/><rect x="332" y="110" width="34" height="260" rx="17" fill="#7a4e2d" opacity=".9" transform="rotate(-12 349 240)"/><circle cx="380" cy="320" r="54" fill="#48664d" opacity=".22"/></g>
  <rect x="28" y="28" width="464" height="374" rx="34" fill="none" stroke="#1f2a24" stroke-opacity=".10"/>
  <text x="42" y="58" font-family="Inter, Arial, sans-serif" font-size="20" font-weight="900" fill="#1f2a24">Fournitures</text>
  <text x="42" y="84" font-family="Cairo, Arial, sans-serif" font-size="15" font-weight="700" fill="#1f2a24" opacity=".62">Cahiers • Stylos</text>
</svg>